<svg preserveAspectRatio="xMidYMid meet" viewBox="967.6800000000001 24.32 280.32 279.04" xmlns="http://www.w3.org/2000/svg" version="1.0" style="max-height: 500px" width="280.32" height="279.04">
<metadata>
Created by potrace 1.15, written by Peter Selinger 2001-2017
</metadata>
<g stroke="none" fill="#fe8b75" transform="translate(0.000000,320.000000) scale(0.100000,-0.100000)">
<path d="M7679 3005 c-270 -44 -504 -151 -709 -323 -156 -131 -267 -274 -361&#xA;-467 -107 -219 -145 -411 -136 -677 4 -136 10 -182 35 -278 135 -526 516 -907&#xA;1042 -1042 96 -25 142 -31 278 -35 266 -9 458 29 677 136 192 94 333 203 467&#xA;361 233 276 351 618 335 975 -10 227 -54 393 -158 596 -75 146 -162 260 -282&#xA;376 -194 185 -448 317 -708 368 -116 23 -370 28 -480 10z m404 -150 c125 -19&#xA;289 -73 400 -133 83 -45 237 -150 237 -163 0 -3 -18 -11 -40 -18 -51 -15 -94&#xA;-52 -128 -109 -23 -40 -27 -58 -26 -122 1 -91 19 -142 104 -285 87 -147 112&#xA;-230 112 -370 0 -90 -6 -131 -31 -225 -44 -167 -188 -588 -195 -570 -23 58&#xA;-446 1316 -446 1326 0 11 19 14 80 14 75 0 80 1 86 24 3 13 4 38 2 55 l-3 33&#xA;-380 0 -380 0 -3 -33 c-2 -17 -1 -42 2 -55 6 -23 10 -24 91 -24 70 0 86 -3 94&#xA;-18 5 -9 51 -131 101 -269 l92 -252 -141 -422 c-77 -233 -143 -416 -146 -408&#xA;-36 98 -455 1344 -455 1354 0 11 21 15 88 17 l87 3 3 37 c6 73 10 72 -232 69&#xA;-119 -1 -216 1 -216 5 0 36 229 266 337 337 152 101 358 181 529 206 95 14&#xA;271 12 377 -4z m999 -819 c47 -127 68 -238 74 -386 12 -279 -60 -532 -219&#xA;-770 -62 -94 -239 -271 -332 -332 -38 -26 -71 -45 -72 -44 -2 2 84 251 192&#xA;554 257 730 283 816 301 1016 8 89 10 88 56 -38z m-2062 -760 c160 -439 289&#xA;-800 286 -803 -9 -9 -135 72 -224 143 -226 181 -385 449 -443 747 -24 121 -25&#xA;328 -4 451 19 106 74 281 85 270 4 -5 139 -368 300 -808z m1093 -328 c109&#xA;-298 194 -545 189 -550 -4 -4 -53 -20 -108 -35 -91 -24 -116 -27 -294 -27&#xA;-157 -1 -211 3 -276 18 -45 10 -86 21 -92 25 -7 4 59 206 181 559 106 303 194&#xA;552 197 552 3 0 94 -244 203 -542z"/>
<path d="M1030 2960 c-276 -18 -440 -87 -590 -247 -125 -134 -183 -292 -200&#xA;-546 -12 -178 -12 -956 0 -1138 6 -81 19 -182 30 -225 53 -211 189 -383 375&#xA;-475 173 -85 305 -99 955 -99 647 0 778 14 959 101 71 35 102 57 177 133 157&#xA;158 206 293 225 616 14 227 6 1101 -11 1210 -16 107 -67 252 -112 323 -117&#xA;183 -307 300 -548 337 -94 14 -1069 22 -1260 10z m1263 -293 c103 -24 171 -60&#xA;237 -123 70 -67 111 -142 137 -252 16 -70 18 -134 18 -697 0 -676 -1 -683 -60&#xA;-813 -33 -72 -124 -165 -197 -201 -128 -64 -148 -66 -828 -66 -680 0 -700 2&#xA;-828 66 -73 36 -164 129 -197 201 -60 130 -60 137 -60 813 0 686 1 705 66 833&#xA;32 66 122 158 185 190 58 30 148 54 234 62 41 5 334 7 650 6 489 -3 585 -5&#xA;643 -19z"/>
<path d="M2252 2473 c-44 -21 -94 -95 -99 -147 -10 -95 79 -183 175 -173 50 5&#xA;114 46 142 92 29 48 27 130 -4 176 -44 65 -141 88 -214 52z"/>
<path d="M1480 2293 c-154 -25 -329 -129 -425 -251 -227 -288 -206 -682 50&#xA;-937 257 -257 666 -276 945 -44 114 95 205 246 236 389 22 102 14 270 -16 360&#xA;-101 301 -368 493 -677 489 -48 -1 -99 -4 -113 -6z m312 -295 c92 -46 167&#xA;-122 211 -215 30 -64 32 -74 32 -183 0 -109 -2 -119 -32 -183 -44 -93 -119&#xA;-169 -212 -215 -73 -36 -77 -37 -191 -37 -114 0 -118 1 -191 37 -93 46 -168&#xA;122 -212 215 -30 64 -32 74 -32 183 0 109 2 119 32 182 54 114 146 197 268&#xA;241 38 13 74 17 151 15 93 -3 106 -6 176 -40z"/>
<path d="M9820 2862 c-19 -9 -45 -32 -57 -51 l-23 -34 0 -1222 0 -1222 23 -34&#xA;c48 -72 18 -69 740 -69 l647 0 0 520 0 519 -165 0 -166 0 -2 190 -2 191 166 0&#xA;167 0 5 208 c3 157 9 220 22 262 53 170 149 265 320 316 48 15 92 18 219 17&#xA;87 -1 176 -5 197 -8 l39 -7 0 -163 0 -162 -134 -5 c-122 -4 -137 -7 -178 -31&#xA;-73 -43 -83 -73 -83 -262 l0 -160 193 -3 193 -2 -5 -28 c-3 -15 -15 -99 -26&#xA;-186 -11 -87 -21 -161 -24 -163 -2 -2 -77 -5 -167 -6 l-164 -2 -3 -498 c-1&#xA;-332 1 -504 8 -517 10 -19 24 -20 361 -20 333 0 352 1 390 21 29 14 46 32 60&#xA;62 18 41 19 84 19 1242 l0 1201 -22 44 c-45 87 67 80 -1303 80 -1132 0 -1212&#xA;-1 -1245 -18z"/>
<path d="M5195 2781 c-189 -54 -340 -197 -413 -389 -23 -59 -26 -82 -26 -201&#xA;l-1 -134 -77 6 c-185 15 -393 74 -583 167 -204 100 -360 218 -508 383 -38 43&#xA;-72 77 -77 77 -4 0 -17 -22 -29 -49 -70 -164 -69 -360 3 -516 32 -69 106 -164&#xA;163 -210 l48 -38 -52 6 c-29 3 -81 18 -115 32 -35 15 -74 29 -87 32 -24 6 -24&#xA;6 -17 -60 24 -236 195 -449 414 -517 31 -10 50 -20 43 -24 -6 -4 -61 -6 -121&#xA;-5 -60 1 -113 0 -116 -4 -10 -10 16 -73 56 -136 101 -155 257 -256 435 -279&#xA;l60 -8 -55 -36 c-209 -135 -472 -208 -707 -195 -83 5 -104 3 -114 -9 -16 -19&#xA;-20 -16 131 -93 228 -117 457 -177 715 -187 590 -25 1099 212 1447 671 219&#xA;290 357 695 358 1053 0 50 4 92 9 92 28 0 293 281 279 295 -2 3 -27 -4 -55&#xA;-15 -51 -19 -179 -53 -243 -64 l-35 -6 30 22 c69 49 161 155 197 228 21 41 36&#xA;76 34 78 -2 2 -27 -8 -55 -22 -76 -39 -146 -66 -240 -92 l-84 -23 -51 45 c-60&#xA;53 -166 107 -251 129 -80 20 -233 18 -310 -4z"/>
</g>
</svg>